# xmcd CD database file
#
# Track frame offsets:
#	150
#	12011
#	24561
#	36188
#	50853
#	63532
#	73964
#	84213
#	96698
#	108509
#	117691
#	132255
#	143016
#	153663
#	162773
#	172234
#	182183
#	194646
#	203770
#	219254
#
# Disc length: 3114 seconds
#
# Revision: 0
# Processed by: cddbd v1.5.1PL0 Copyright (c) Steve Scherf et al.
# Submitted via: Feurio! 1.67 - http://www.feurio.com
#
DISCID=330c2814
DTITLE=Dusan Barczi and country dixi club - Winnetou
DYEAR=2005
DGENRE=Country
TTITLE0=Winnetou
TTITLE1=Dixiboy
TTITLE2=Cucoriedka, cucoriedka
TTITLE3=Okolo Statov
TTITLE4=Ruky bozkavam
TTITLE5=Poziarnicka
TTITLE6=Bratranec
TTITLE7=Dovi, dovi
TTITLE8=U notara
TTITLE9=Predavacka
TTITLE10=Preco places, preco
TTITLE11=Hej, hej v USA
TTITLE12=Dam si este flasu
TTITLE13=Autobus
TTITLE14=V Utahu
TTITLE15=Jano robi na bagri
TTITLE16=Arizona, Arizona
TTITLE17=So Stanom pod stanom
TTITLE18=Charleston
TTITLE19=BONUS - Strelecka
EXTD=
EXTT0=
EXTT1=
EXTT2=
EXTT3=
EXTT4=
EXTT5=
EXTT6=
EXTT7=
EXTT8=
EXTT9=
EXTT10=
EXTT11=
EXTT12=
EXTT13=
EXTT14=
EXTT15=
EXTT16=
EXTT17=
EXTT18=
EXTT19=
PLAYORDER=
